<svg width="128" height="128" viewBox="0 0 128 128" fill="none" xmlns="https://www.w3.org/2000/svg">
<rect width="128" height="128" rx="24" fill="white"/>
<path fill-rule="evenodd" clip-rule="evenodd" d="M64 70.9284C59.7381 75.6096 52.5947 79.118 44.5207 80C42.9457 80 41.3664 79.9355 39.8036 79.8081C23.2178 79.4597 10 73.0649 10 65.2273C10 59.8338 16.2594 55.1236 25.5683 52.5969C23.7388 53.7048 22.1837 54.8987 20.9443 56.1611C18.4832 59.3699 17.6286 62.5718 19.0762 64.2485C19.6548 64.9187 20.5377 65.2718 21.6205 65.3353C28.4045 63.922 33.4351 60.0374 38.311 56.2722C42.6762 52.9014 46.9174 49.6264 52.1817 48.3062C54.0631 47.8344 56.0452 47.9366 57.9247 48.416C60.4029 49.048 62.4268 49.876 64 51.0533C65.2028 50.1532 66.669 49.4573 68.4003 48.897C71.3449 47.9441 74.5612 47.8033 77.4907 48.8004C82.0007 50.3354 85.7955 53.2657 89.689 56.2722C94.5649 60.0374 99.5955 63.922 106.379 65.3353C107.462 65.2718 108.345 64.9187 108.924 64.2485C110.371 62.5717 109.517 59.3699 107.056 56.1611C105.816 54.8985 104.261 53.7044 102.431 52.5963C111.74 55.123 118 59.8335 118 65.2273C118 70.7404 109.269 75.5396 98.233 78.0226C93.7438 79.3206 88.589 80 83.4793 80C75.4053 79.118 68.2619 75.6096 64 70.9284Z" fill="url(#paint0_linear)"/>
<defs>
<linearGradient id="paint0_linear" x1="10" y1="65.8465" x2="118" y2="65.5718" gradientUnits="userSpaceOnUse">
<stop stop-color="#3F3F3F"/>
<stop offset="0.513812" stop-color="#1C1C1C"/>
<stop offset="1" stop-color="#3F3F3F"/>
</linearGradient>
</defs>
</svg>
