<svg width="600" height="181" viewBox="0 0 600 181" fill="none" xmlns="https://www.w3.org/2000/svg">
<path fill-rule="evenodd" clip-rule="evenodd" d="M300 129.725C276.323 156.184 236.637 176.015 191.782 181C183.032 181 174.258 180.635 165.576 179.915C73.4324 177.946 0 141.801 0 97.5C0 67.0143 34.7745 40.3906 86.4908 26.1085C76.3265 32.3708 67.687 39.119 60.8017 46.2549C47.1291 64.3917 42.381 82.4898 50.4234 91.9676C53.6376 95.7554 58.5428 97.7516 64.5584 98.1105C102.247 90.1219 130.195 68.1647 157.283 46.8829C181.535 27.83 205.097 9.31852 234.343 1.85627C244.795 -0.810727 255.807 -0.232539 266.248 2.47687C280.016 6.04945 291.26 10.7295 300 17.3838C306.682 12.2962 314.828 8.36275 324.446 5.19589C340.805 -0.190368 358.673 -0.986175 374.948 4.64951C400.004 13.326 421.086 29.8891 442.717 46.8829C469.805 68.1646 497.753 90.1218 535.441 98.1105C541.457 97.7516 546.362 95.7554 549.577 91.9675C557.619 82.4898 552.871 64.3917 539.198 46.2549C532.312 39.1179 523.671 32.3688 513.505 26.1056C565.223 40.387 600 67.0122 600 97.5C600 128.662 551.497 155.788 490.183 169.823C465.243 177.16 436.606 181 408.218 181C363.363 176.015 323.677 156.184 300 129.725Z" fill="url(#paint0_linear)"/>
<defs>
<linearGradient id="paint0_linear" x1="-3.90687e-06" y1="101" x2="600" y2="99.5" gradientUnits="userSpaceOnUse">
<stop stop-color="#3F3F3F"/>
<stop offset="0.513812" stop-color="#1C1C1C"/>
<stop offset="1" stop-color="#3F3F3F"/>
</linearGradient>
</defs>
</svg>
